# xmcd
#
# Track frame offsets:
#	150
#	15565
#	31890
#	48975
#	65965
#	80920
#	96120
#	111800
#	128690
#	144230
#
# Disc length: 2136 seconds
#
# Revision: 1
# Processed by: cddbd v1.5.2PL0 Copyright (c) Steve Scherf et al.
# Submitted via: audiograbber 1.83.01
#
DISCID=8308560a
DTITLE=Alvaro Torres - Mas Romantico Que Nadie
DYEAR=1988
DGENRE=Latin
TTITLE0=Pienso En Ti
TTITLE1=No Me Dejes De Amar
TTITLE2=Mas Romantico Que Nadie
TTITLE3=Esa Mujer
TTITLE4=Soy Un Hombre Muerto
TTITLE5=Amor Que Mata
TTITLE6=Tal Para Cual
TTITLE7=Hazme Olvidarla
TTITLE8=Adicto
TTITLE9=Por Lo Mucho Que Te Amo
EXTD=
EXTT0=
EXTT1=
EXTT2=
EXTT3=
EXTT4=
EXTT5=
EXTT6=
EXTT7=
EXTT8=
EXTT9=
PLAYORDER=
